<svg width="32" height="32" viewBox="0 0 32 32" fill="none" xmlns="http://www.w3.org/2000/svg">
<path d="M15.8265 1.65527C18.2831 3.97756 20.7404 6.29853 23.1976 8.61951C22.9742 8.84944 22.7462 9.07479 22.5202 9.30146C20.2936 7.19862 18.0663 5.09579 15.8416 2.99034C13.6693 5.17047 11.4728 7.32571 9.29926 9.50453C9.06735 9.28115 8.82956 9.063 8.59766 8.83831C10.4692 6.97131 12.352 5.1161 14.2209 3.24583C14.7705 2.73093 15.2953 2.18917 15.8265 1.65527Z" fill="#013CC8"/>
<path d="M9.82031 9.91353C11.8393 7.90503 13.8786 5.9175 15.8995 3.91162C17.9604 5.84871 20.0141 7.79367 22.0744 9.73076C21.8477 9.95742 21.6204 10.1841 21.3944 10.4121C19.5713 8.68786 17.7482 6.96367 15.9152 5.25062C14.121 7.0246 12.3188 8.7894 10.5285 10.5673C10.288 10.3538 10.0555 10.1317 9.82031 9.91353Z" fill="#013CC8"/>
<path d="M10.9844 11.0244C12.611 9.41417 14.2565 7.82297 15.8785 6.20752C17.5411 7.74698 19.1887 9.3015 20.8474 10.8442C20.6201 11.0709 20.3927 11.2975 20.1661 11.5255C18.7472 10.1977 17.3217 8.87766 15.9041 7.54848C14.493 8.92155 13.0918 10.3057 11.6866 11.6854C11.4508 11.4672 11.2209 11.2419 10.9844 11.0244Z" fill="#013CC8"/>
<path d="M21.0365 11.3681C21.8822 10.563 22.6939 9.72253 23.5232 8.90039C25.9752 11.2279 28.4344 13.5469 30.8923 15.8679C30.6669 16.0926 30.4409 16.3166 30.2188 16.5446C27.9889 14.4529 25.7688 12.3501 23.5507 10.2459C21.3496 12.3999 19.18 14.5859 16.9894 16.751C16.7607 16.5243 16.5242 16.3068 16.2891 16.0874C17.8737 14.5165 19.459 12.9462 21.0365 11.3681Z" fill="#013CC8"/>
<path d="M4.6329 12.4612C5.73017 11.3488 6.85168 10.2627 7.95485 9.15625C10.4081 11.4812 12.8713 13.7975 15.3239 16.1238C15.0986 16.3498 14.8732 16.5751 14.6472 16.8005C12.4219 14.6996 10.1946 12.5994 7.9745 10.4926C6.66826 11.7858 5.35808 13.0743 4.06232 14.378C3.1655 15.2368 2.31323 16.1408 1.41249 16.9957C1.18386 16.7736 0.948686 16.56 0.71875 16.3399C1.47734 15.5702 2.25755 14.8221 3.01876 14.055C3.55462 13.5218 4.08197 12.9787 4.6329 12.4612Z" fill="#013CC8"/>
<path d="M17.5117 17.1535C19.5366 15.1594 21.5595 13.1627 23.5877 11.1719C23.7894 11.3081 23.948 11.4994 24.1294 11.6606C26.0095 13.4306 27.8824 15.2085 29.7697 16.9707C29.5424 17.2 29.3138 17.428 29.0851 17.6566C27.2673 15.9304 25.435 14.2193 23.6171 12.4932C21.817 14.2659 20.0135 16.0359 18.2192 17.8158C17.9781 17.6009 17.7469 17.3749 17.5117 17.1535Z" fill="#013CC8"/>
<path d="M8.02768 11.4058C10.0814 13.352 12.1456 15.2872 14.2019 17.2301C13.9733 17.4548 13.7512 17.6861 13.5167 17.9036C11.6922 16.1833 9.86651 14.465 8.04209 12.7454C6.24715 14.522 4.44107 16.2868 2.64548 18.0634C2.42209 17.8381 2.16661 17.6442 1.96484 17.3985C3.42569 15.9101 4.93763 14.4729 6.41027 12.9963C6.95792 12.4742 7.48003 11.9272 8.02768 11.4058Z" fill="#013CC8"/>
<path d="M20.6679 16.3148C21.6368 15.3623 22.6083 14.4111 23.5785 13.46C25.2391 15.0027 26.8899 16.5559 28.548 18.1013C28.3154 18.324 28.0789 18.5428 27.8516 18.7708C26.4379 17.4409 25.0105 16.1255 23.5968 14.7957C22.1871 16.1694 20.7871 17.5529 19.3793 18.9286C19.1402 18.7105 18.907 18.4864 18.6758 18.2604C19.3551 17.6276 19.9991 16.9581 20.6679 16.3148Z" fill="#013CC8"/>
<path d="M3.10938 18.5211C4.73465 16.9096 6.38285 15.3223 8.00353 13.7056C9.66811 15.2417 11.3111 16.8015 12.9743 18.3397C12.7496 18.5716 12.5197 18.7982 12.2917 19.0268C10.8689 17.6977 9.44669 16.3672 8.0186 15.0439C6.63047 16.4347 5.20762 17.7907 3.82014 19.1821C3.58104 18.964 3.34193 18.7465 3.10938 18.5211Z" fill="#013CC8"/>
<path d="M0.0507812 16.9985C2.72288 19.3516 5.40088 21.6981 8.06905 24.0558C10.5256 21.7905 12.9809 19.5239 15.4316 17.2521C15.406 17.6897 15.4696 18.1259 15.4571 18.5635C12.9979 20.821 10.5446 23.0843 8.09067 25.3476C5.46901 23.0339 2.8598 20.7057 0.239446 18.3899C0.175248 18.3264 0.0835355 18.2661 0.0959822 18.1626C0.0855008 17.7748 0.0586423 17.387 0.0507812 16.9985Z" fill="#013CC8"/>
<path d="M16.1914 17.1133C18.8484 19.4415 21.5336 21.7382 24.2031 24.052C26.5804 21.7493 28.9604 19.4487 31.3305 17.1395C31.3252 17.5738 31.3685 18.0068 31.379 18.4405C29.0095 20.7556 26.6132 23.0431 24.2385 25.3523C21.5775 23.0215 18.9061 20.7025 16.2425 18.3743C16.2268 17.9538 16.2196 17.5332 16.1914 17.1133Z" fill="#013CC8"/>
<path d="M24.3145 26.5581C26.7075 24.1716 29.0658 21.7517 31.4359 19.3423C31.4543 19.7576 31.4536 20.1742 31.472 20.5902C29.1025 23.0121 26.7265 25.4274 24.361 27.8525C21.6902 25.5198 19.0273 23.1778 16.3545 20.847C16.3486 20.3911 16.31 19.9371 16.2969 19.4812C18.967 21.8434 21.6437 24.1971 24.3145 26.5581Z" fill="#013CC8"/>
<path d="M0.125 19.3623C2.79907 21.7619 5.4692 24.1667 8.14917 26.5591C10.6143 24.2113 13.0473 21.8294 15.4934 19.4619C15.4757 19.8648 15.5536 20.2676 15.513 20.6705C15.3446 20.9077 15.1082 21.0891 14.9038 21.2948C12.6653 23.49 10.4059 25.6629 8.17144 27.8621C5.70045 25.6642 3.23339 23.4625 0.764365 21.2621C0.565219 21.076 0.342489 20.9129 0.164305 20.7059C0.158409 20.2585 0.131551 19.8104 0.125 19.3623Z" fill="#013CC8"/>
<path d="M24.431 28.7575C26.8024 26.3442 29.166 23.9237 31.5276 21.5005C31.5636 21.9368 31.5846 22.3737 31.5944 22.8113C29.2191 25.224 26.8398 27.6334 24.4625 30.0448C21.8028 27.7448 19.1301 25.4598 16.4684 23.1618C16.4239 22.7242 16.4357 22.2846 16.4141 21.8464C19.0803 24.1569 21.7655 26.4457 24.431 28.7575Z" fill="#013CC8"/>
<path d="M8.2187 28.7529C10.6825 26.3887 13.1174 23.9957 15.557 21.6079C15.5865 22.0481 15.6022 22.489 15.5989 22.9305C13.143 25.3033 10.6851 27.6747 8.23639 30.0546C5.57477 27.7153 2.90594 25.3832 0.239737 23.0498C0.220085 22.6082 0.22729 22.1667 0.214844 21.7258C1.27347 22.6881 2.36484 23.6138 3.43656 24.5617C5.0317 25.9577 6.62488 27.3556 8.2187 28.7529Z" fill="#013CC8"/>
</svg>
