<svg width="32" height="32" viewBox="0 0 32 32" fill="none" xmlns="http://www.w3.org/2000/svg">
<g clip-path="url(#clip0_36734_385306)">
<path d="M0 0H31.9739C31.9778 0.0110056 31.9838 0.0261751 31.9865 0.0388839C32.012 0.160774 31.9934 1.17709 31.9934 1.37772L31.9935 5.36724V26.5292L31.9934 30.6057C31.9934 30.8194 32.0121 31.8384 31.9865 31.9611C31.9838 31.9739 31.9778 31.989 31.9739 32H0V0Z" fill="white"/>
<path d="M13.0423 8.62999L13.7408 8.62793L13.7465 16.0484V18.3286C13.7463 19.2802 13.7582 20.2163 13.561 21.1536C13.3489 22.1622 12.9211 23.1233 12.1869 23.8605C11.544 24.506 10.7004 24.9422 9.81977 25.1605C9.65517 25.2014 9.48796 25.2156 9.3228 25.2501C9.11034 25.2944 8.90425 25.3524 8.68929 25.3884C8.52089 25.417 8.35187 25.4417 8.18235 25.4626C8.06834 25.4761 7.94465 25.4797 7.8333 25.5049C7.62421 25.5016 7.41404 25.5195 7.20443 25.5183C6.18554 25.5123 5.19545 25.4203 4.28074 24.9339C4.0922 24.8336 3.91797 24.7154 3.73964 24.5986C3.43637 24.3291 3.22155 24.1627 2.96329 23.8373C2.10386 22.7544 1.81317 21.3459 1.75369 19.9943C1.74084 19.7022 1.71777 19.338 1.75326 19.0536C1.76654 18.9473 1.80915 18.8454 1.89753 18.7801C1.96353 18.7312 2.08437 18.704 2.16593 18.7209C2.28801 18.7461 2.40369 18.8512 2.43339 18.9716C2.47231 19.1296 2.43781 19.6536 2.44599 19.8655C2.48953 20.9939 2.68285 22.1756 3.31709 23.1347C3.66745 23.6725 4.15878 24.1039 4.73749 24.3815C4.85406 24.4381 4.9922 24.509 5.11958 24.5333C5.12241 24.5339 5.12527 24.5343 5.1281 24.5347C4.57423 24.13 4.12716 23.6282 3.80607 23.0203C3.43811 22.3237 3.26506 21.5486 3.2233 20.7655C3.21516 20.6127 3.19033 20.4193 3.23984 20.2724C3.26867 20.1869 3.3265 20.1173 3.40846 20.0783C3.49779 20.0361 3.60049 20.0324 3.69264 20.068C3.78557 20.104 3.85905 20.1754 3.89005 20.2709C3.94669 20.4455 3.9194 20.7279 3.93348 20.919C3.97133 21.4326 4.09479 21.9599 4.30041 22.4324C4.68228 23.3257 5.40507 24.0296 6.30823 24.3876C6.20107 24.2873 6.07444 24.2061 5.96476 24.1074C5.55613 23.745 5.23046 23.2987 5.00997 22.799C4.82341 22.3852 4.73747 21.9322 4.70569 21.4819C4.69571 21.3405 4.67779 21.1773 4.73219 21.0431C4.76576 20.9603 4.82606 20.8942 4.91013 20.8616C4.99777 20.8276 5.10369 20.8263 5.18989 20.8651C5.27508 20.9033 5.3471 20.9814 5.37537 21.0707C5.42109 21.2153 5.4012 21.397 5.41264 21.5489C5.43787 21.8609 5.51038 22.1671 5.62767 22.4573C5.97707 23.3179 6.68313 23.8989 7.52205 24.255C7.70309 24.3243 8.11247 24.483 8.29447 24.4739L8.32376 24.4547C8.56295 24.3693 8.84784 24.1259 9.0269 23.9471C9.68773 23.2873 10.0193 22.3507 10.1902 21.4512C10.3555 20.5803 10.3534 19.7167 10.3535 18.8352L10.3536 16.8323L10.3534 10.1092L11.0532 10.1093L11.0534 16.8807V18.825C11.0533 19.7125 11.0523 20.582 10.8978 21.4605C10.7314 22.4065 10.3989 23.254 9.90904 24.0779C9.5392 24.3252 9.25466 24.3944 8.85416 24.5487C8.90766 24.5505 8.96118 24.5516 9.01472 24.5521C9.21008 24.554 9.40509 24.535 9.59641 24.4954C10.1462 24.3776 11.0154 24.0095 11.4121 23.6137C11.5442 23.5305 11.6671 23.3986 11.7734 23.2845C12.3345 22.6826 12.6731 21.9244 12.8544 21.1281C13.0677 20.1915 13.0495 19.2454 13.0497 18.292L13.0498 16.0589L13.0423 8.62999Z" fill="#F3BA44"/>
<path d="M5.1292 24.5345C4.57532 24.1297 4.12826 23.6279 3.80717 23.02C3.43921 22.3235 3.26616 21.5484 3.2244 20.7652C3.21626 20.6125 3.19142 20.419 3.24093 20.2721C3.26977 20.1866 3.3276 20.117 3.40956 20.078C3.49889 20.0358 3.60159 20.0321 3.69373 20.0677C3.78667 20.1037 3.86014 20.1751 3.89114 20.2706C3.94779 20.4452 3.9205 20.7276 3.93458 20.9187C3.97242 21.4324 4.09589 21.9596 4.30151 22.4321C4.68338 23.3255 5.40617 24.0294 6.30932 24.3874C6.4655 24.4837 6.6173 24.585 6.77878 24.6727C7.36414 24.9904 8.00891 25.1835 8.67252 25.2398C8.86429 25.2551 9.05441 25.2471 9.24609 25.2539C8.7773 25.3235 8.27819 25.3882 7.80442 25.386C6.8472 25.3786 5.91461 25.0818 5.1292 24.5345Z" fill="#C72F7A"/>
<path d="M11.6995 7.08694L13.6835 7.08691V7.78492H12.3991L12.3992 16.4135L12.3991 18.8661C12.3991 19.669 12.4131 20.4705 12.2911 21.267C12.1586 22.1314 11.8924 22.8813 11.4134 23.6135C11.0167 24.0093 10.1475 24.3774 9.59772 24.4952C9.4064 24.5348 9.21139 24.5538 9.01602 24.5519C8.96249 24.5514 8.90897 24.5503 8.85547 24.5485C9.25597 24.3942 9.54051 24.325 9.91035 24.0777C10.1142 23.9501 10.3028 23.7994 10.4723 23.6288C11.0809 23.0208 11.4086 22.212 11.5646 21.3774C11.7232 20.5297 11.6995 19.6683 11.6996 18.8102V16.26L11.6995 7.08694Z" fill="#C72F7A"/>
<path d="M9 8.45167L11.0869 8.45166V9.1495H9.70118L9.70123 16.9112L9.7013 19.0927C9.70145 20.0032 9.71169 20.9002 9.54229 21.7998C9.36039 22.766 8.99858 23.7215 8.32515 24.4544L8.29586 24.4735C8.11386 24.4826 7.70448 24.3239 7.52344 24.2546C8.54782 23.3645 8.88415 21.9893 8.97523 20.6843C9.01448 20.1219 9.00012 19.5552 9.00015 18.9917L9.00023 16.446L9 8.45167Z" fill="#C72F7A"/>
<path d="M15.3086 19.0027C15.7335 19.0021 16.5258 18.9562 16.9036 19.0903C17.0753 19.1512 17.223 19.2631 17.3001 19.4313C17.3813 19.6083 17.3784 19.8288 17.3085 20.0088C17.2374 20.192 17.114 20.305 16.9373 20.383C16.9925 20.4 17.0489 20.4161 17.1017 20.4397C17.2697 20.5147 17.4026 20.6436 17.4664 20.8178C17.5473 21.0386 17.5174 21.2772 17.4197 21.4865C17.3816 21.5498 17.3417 21.607 17.2888 21.6592C16.9547 21.9892 16.4491 21.9611 16.0159 21.9608L15.3086 21.96V19.0027Z" fill="#C72F7A"/>
<path d="M15.9062 20.6483C16.1698 20.647 16.626 20.591 16.8277 20.7909C16.9005 20.8631 16.9291 20.9638 16.9285 21.0641C16.9278 21.1847 16.8841 21.281 16.7994 21.3651C16.5791 21.55 16.1758 21.4986 15.9062 21.4976V20.6483Z" fill="#FFFEFF"/>
<path d="M15.9072 19.4638C16.1318 19.4627 16.525 19.4156 16.6936 19.5864C16.7584 19.652 16.7774 19.7388 16.7765 19.8282C16.7755 19.944 16.7313 20.0231 16.6508 20.1016C16.4314 20.2394 16.1546 20.2059 15.9062 20.2045L15.9072 19.4638Z" fill="#FFFEFF"/>
<path d="M7.83516 25.5048C7.52012 25.5854 7.18103 25.6097 6.85781 25.6334C5.91888 25.7024 5.00073 25.6972 4.08488 25.4481C2.84884 25.1119 1.80572 24.3446 1.16753 23.2271C0.751617 22.4988 0.542446 21.6779 0.494868 20.8438C0.486059 20.6893 0.462085 20.4905 0.506487 20.3412C0.53314 20.2515 0.592017 20.1673 0.67704 20.1246C0.760016 20.0831 0.877619 20.0824 0.963111 20.1146C1.06476 20.1529 1.13927 20.2378 1.16832 20.3419C1.20829 20.4852 1.1881 20.7594 1.20051 20.9261C1.23679 21.4579 1.36159 21.9799 1.56977 22.4707C1.9842 23.4391 2.76494 24.2041 3.74149 24.5986C3.91982 24.7154 4.09406 24.8336 4.28259 24.9338C5.1973 25.4203 6.18739 25.5123 7.20628 25.5183C7.41589 25.5195 7.62607 25.5016 7.83516 25.5048Z" fill="#C72F7A"/>
<path d="M19.1557 11.7867C19.2336 11.7783 19.3331 11.792 19.4087 11.8151C19.5972 11.8726 19.7056 12.0036 19.7944 12.1722C19.924 12.0407 20.0614 11.9111 20.2349 11.84C20.4128 11.7671 20.628 11.765 20.8051 11.8425C20.957 11.9089 21.0612 12.0356 21.1208 12.1881C21.1613 12.2921 21.1824 12.4036 21.1921 12.5145C21.2157 12.7841 21.198 13.065 21.1978 13.3362C21.1976 13.5614 21.2142 13.7934 21.1984 14.0179C21.1968 14.0405 21.1912 14.0562 21.1821 14.0766H20.5887C20.5947 14.0655 20.6001 14.0554 20.6029 14.0429C20.6256 13.9402 20.6072 13.7312 20.6072 13.6187C20.6071 13.2974 20.6312 12.9009 20.5941 12.5881C20.5863 12.5221 20.5672 12.4563 20.5304 12.4004C20.4884 12.3364 20.4273 12.3086 20.3537 12.2956C20.1399 12.2582 20.029 12.425 19.8742 12.5285L19.8581 12.539C19.8621 12.5493 19.864 12.5529 19.8664 12.563C19.8862 12.6445 19.8816 13.6712 19.8701 13.8048C19.8684 13.8246 19.8621 13.8372 19.8526 13.8541C19.86 13.8658 19.8613 13.8666 19.8662 13.8819C19.8823 13.9321 19.8796 14.0291 19.8551 14.0766L19.2767 14.0766L19.2773 13.1313C19.2774 12.9453 19.2928 12.7436 19.2603 12.5601C19.2479 12.4896 19.2233 12.4176 19.1738 12.3642C19.1251 12.3118 19.0592 12.2911 18.9889 12.2916C18.8059 12.293 18.6642 12.4194 18.5429 12.5413V14.0766H17.9492V11.8386H18.4357C18.4491 11.9414 18.4647 12.044 18.4823 12.1461C18.6833 11.9481 18.8668 11.8072 19.1557 11.7867Z" fill="#C72F7A"/>
<path d="M16.4274 11.0642C16.4298 11.0639 16.4324 11.0635 16.4348 11.0634C16.7886 11.0384 17.1328 11.2185 17.389 11.4456C17.2864 11.5708 17.1849 11.697 17.0846 11.824C16.9151 11.6904 16.7286 11.5947 16.5104 11.5788C16.3838 11.5696 16.2075 11.6033 16.1123 11.692C16.0609 11.7398 16.0394 11.8034 16.0371 11.8724C16.0344 11.9581 16.071 12.0292 16.1343 12.0856C16.2178 12.1603 16.3276 12.2025 16.43 12.2443C16.7178 12.362 17.0793 12.4629 17.2913 12.7017C17.4364 12.8653 17.49 13.078 17.4745 13.2933C17.4579 13.519 17.3506 13.7283 17.177 13.8734C16.9169 14.0943 16.5631 14.1499 16.2327 14.1218C15.876 14.0794 15.5744 13.942 15.3086 13.7004C15.422 13.5626 15.5385 13.4271 15.6535 13.2905L15.666 13.3019C15.8794 13.4913 16.1725 13.6313 16.4631 13.6117C16.5838 13.6036 16.7199 13.5695 16.8007 13.4729C16.8497 13.4142 16.8754 13.3238 16.868 13.2479C16.8597 13.1624 16.8044 13.0938 16.7383 13.0434C16.6555 12.9802 16.5561 12.9416 16.4611 12.901C16.212 12.7947 15.9195 12.7022 15.7119 12.5246C15.5491 12.3854 15.4483 12.2025 15.4337 11.9875C15.4193 11.7759 15.4925 11.5547 15.6337 11.3958C15.8371 11.1668 16.1306 11.0795 16.4274 11.0642Z" fill="#C72F7A"/>
<path d="M22.905 18.7761C23.0916 18.7602 23.2864 18.7714 23.474 18.7717C23.4798 18.7836 23.4825 18.788 23.486 18.8C23.5111 18.8853 23.4931 19.3066 23.4931 19.4247C23.4933 19.8221 23.509 20.2266 23.4914 20.6232C23.4902 20.6506 23.485 20.6732 23.4725 20.6977C23.4912 20.6871 23.5076 20.6772 23.5225 20.6614C23.6112 20.5674 24.2512 19.7717 24.2648 19.7243H24.9051C24.905 19.7271 24.9051 19.7298 24.9045 19.7326C24.8953 19.7772 24.1931 20.5995 24.1345 20.6402C24.1783 20.6694 24.6544 21.3997 24.6709 21.4746C24.6762 21.4792 24.6859 21.487 24.6911 21.4926C24.7412 21.5463 24.9741 21.9057 24.9752 21.9598L24.3354 21.96C24.3354 21.9546 24.3363 21.9493 24.3353 21.9442C24.3274 21.9012 23.8781 21.1393 23.8282 21.0741C23.8175 21.0601 23.8065 21.0515 23.7929 21.0407C23.7923 21.0438 23.7922 21.047 23.7913 21.05C23.7735 21.1101 23.5341 21.363 23.4775 21.4016C23.4838 21.4118 23.486 21.4141 23.4893 21.4274C23.5063 21.4958 23.5022 21.8993 23.474 21.96H22.8945C22.9119 21.9313 22.9105 21.903 22.9111 21.8708C22.9253 21.1697 22.9118 20.4656 22.9115 19.7642L22.9119 19.113C22.9119 19.0038 22.9233 18.8827 22.905 18.7761Z" fill="#C72F7A"/>
<path d="M18.5697 7.76391C18.6164 7.7586 18.6629 7.75747 18.7098 7.75693C18.9319 7.75435 19.1559 7.80407 19.3187 7.96487C19.4318 8.07675 19.4996 8.2227 19.5364 8.37602C19.5968 8.62806 19.5785 8.90204 19.5784 9.15952L19.5775 10.0474H19.093C19.0734 9.96476 19.0613 9.87926 19.0464 9.79557C19.0301 9.80985 19.0137 9.82379 18.997 9.83737C18.7886 10.0065 18.541 10.127 18.2664 10.0958C18.0728 10.0739 17.9309 9.98249 17.8108 9.83267C17.7589 9.74287 17.7209 9.65735 17.7046 9.5542C17.6769 9.38022 17.7101 9.19079 17.8173 9.0485C18.066 8.71816 18.6054 8.66227 18.9876 8.60927C18.9768 8.54224 18.9675 8.47572 18.9364 8.41445C18.8948 8.33279 18.8285 8.27504 18.7404 8.24895C18.4874 8.17406 18.2064 8.32205 17.9921 8.44181C17.9196 8.31181 17.8489 8.18072 17.7803 8.04859C18.0268 7.89935 18.2819 7.79712 18.5697 7.76391Z" fill="#C72F7A"/>
<path d="M18.9225 8.98574C18.9346 8.98333 18.9514 8.98426 18.9637 8.98389C19.0022 9.03068 18.9821 9.34382 18.9811 9.42154C18.9053 9.49419 18.8231 9.5637 18.725 9.6042C18.6061 9.65331 18.4906 9.64671 18.3734 9.59825C18.3198 9.5581 18.2825 9.51323 18.2705 9.4456C18.2561 9.36919 18.274 9.29022 18.3198 9.22748C18.4436 9.05975 18.7322 9.0138 18.9225 8.98574Z" fill="#FFFEFF"/>
<path d="M18.7735 19.62C18.8072 19.6172 18.8409 19.6163 18.8746 19.6158C19.1022 19.613 19.3315 19.6631 19.498 19.8281C19.8173 20.1448 19.7541 20.6923 19.754 21.1038L19.7534 21.9055H19.2685C19.2496 21.8238 19.2373 21.7397 19.2222 21.6572C19.2112 21.6664 19.2 21.6755 19.1888 21.6845C18.9699 21.8593 18.7246 21.9902 18.4359 21.9548C18.2404 21.9308 18.102 21.8375 17.9822 21.6854C17.9268 21.5897 17.8891 21.4934 17.8762 21.3828C17.8563 21.2111 17.8938 21.0339 18.0028 20.8971C18.2555 20.5796 18.7788 20.518 19.1574 20.4726C19.1545 20.4023 19.1419 20.3296 19.1099 20.2663C19.0695 20.1865 19.0023 20.133 18.9166 20.1086C18.662 20.036 18.3839 20.1801 18.1685 20.3014L17.9539 19.9091C18.2161 19.7548 18.4694 19.6548 18.7735 19.62Z" fill="#C72F7A"/>
<path d="M19.1258 20.8417L19.1439 20.8403C19.1797 20.8963 19.1596 21.1972 19.1589 21.2832C19.0736 21.36 18.987 21.4351 18.8769 21.4736C18.76 21.5143 18.6463 21.503 18.5367 21.449C18.4843 21.4019 18.4463 21.339 18.4355 21.2682C18.4265 21.2087 18.4505 21.1508 18.4856 21.1037C18.6235 20.9184 18.9128 20.8713 19.1258 20.8417Z" fill="#FFFEFF"/>
<path d="M22.6411 11.7874C22.8075 11.7727 23.0014 11.8015 23.1514 11.8778C23.3329 11.9701 23.4484 12.1326 23.5099 12.3236C23.5411 12.4204 23.5579 12.5223 23.5657 12.6235C23.5781 12.7856 23.5907 14.0097 23.5565 14.0764H23.073C23.0741 14.0735 23.0757 14.0706 23.0764 14.0675C23.0912 14.0118 23.0551 13.8763 23.0245 13.8284C23.0181 13.8435 23.0151 13.847 23.0034 13.8581C22.8293 14.0229 22.5712 14.1364 22.3303 14.1292C22.1632 14.1242 21.9984 14.069 21.8815 13.9466C21.8418 13.9049 21.811 13.856 21.7712 13.8149L21.7587 13.8022C21.7604 13.736 21.7018 13.6073 21.6914 13.527C21.6721 13.3755 21.7254 13.1911 21.8191 13.071C22.0659 12.7545 22.5914 12.6896 22.9654 12.643C22.9785 12.5965 22.9708 12.5493 22.9571 12.5036C22.9305 12.4144 22.8673 12.3343 22.7829 12.2936C22.5128 12.1634 22.2159 12.3824 21.9835 12.4669C21.9809 12.4678 21.9782 12.4687 21.9755 12.4696C21.9732 12.4069 21.8091 12.1293 21.7635 12.0797C21.8408 12.047 21.9143 11.9993 21.9904 11.9625C22.2 11.8612 22.4094 11.8057 22.6411 11.7874Z" fill="#C72F7A"/>
<path d="M22.9376 13.0093L22.9673 13.0162C22.9687 13.0194 22.9705 13.0226 22.9716 13.026C22.9937 13.0918 22.9885 13.3879 22.9633 13.4528C22.9612 13.4582 22.9595 13.4639 22.9567 13.4691C22.9253 13.5269 22.807 13.5992 22.7491 13.6226C22.6052 13.6807 22.4782 13.6754 22.3363 13.613C22.3329 13.6031 22.3229 13.5898 22.3171 13.5806C22.3 13.554 22.2796 13.5272 22.2713 13.4961C22.2512 13.4209 22.2627 13.3331 22.306 13.2681C22.4246 13.0899 22.743 13.0435 22.9376 13.0093Z" fill="#FFFEFF"/>
<path d="M22.0353 15.7317C22.2372 15.7205 22.4407 15.7262 22.624 15.8217C22.8066 15.9168 22.9231 16.0829 22.9823 16.2772C23.0141 16.3817 23.0294 16.4902 23.0368 16.599C23.053 16.8381 23.0396 17.0824 23.0396 17.3224C23.0396 17.5306 23.0536 17.7439 23.0401 17.9516C23.0386 17.9772 23.0337 17.9936 23.0216 18.0162H22.5384C22.5434 18.0039 22.5451 18.0019 22.5464 17.9866C22.5516 17.9305 22.525 17.812 22.491 17.7677C22.4851 17.7789 22.4806 17.7878 22.4717 17.7971C22.3227 17.9549 22.0623 18.0614 21.8476 18.0695C21.5601 18.0804 21.4673 17.9862 21.2703 17.8056L21.2558 17.7922C21.2538 17.7425 21.175 17.5811 21.1623 17.4942C21.1393 17.3374 21.1824 17.1519 21.2772 17.0241C21.5216 16.6944 22.053 16.6359 22.4312 16.5829C22.4543 16.5309 22.4317 16.4556 22.4122 16.4039C22.382 16.3239 22.3038 16.2564 22.2253 16.2257C21.9604 16.1219 21.6826 16.3114 21.4488 16.4091L21.4391 16.413C21.4462 16.3578 21.2786 16.0839 21.2436 16.0176C21.498 15.8719 21.7433 15.7744 22.0353 15.7317Z" fill="#C72F7A"/>
<path d="M22.3804 16.9539C22.3992 16.9522 22.4172 16.9526 22.4361 16.9528C22.4391 16.9583 22.4432 16.9633 22.4451 16.9693C22.4629 17.0263 22.4515 17.3362 22.4337 17.393C22.4317 17.3981 22.4307 17.4038 22.4277 17.4085C22.3909 17.4666 22.2905 17.5321 22.2289 17.5585C22.0865 17.6192 21.9545 17.6178 21.8119 17.5582C21.7866 17.5189 21.7509 17.4799 21.7395 17.4339C21.7211 17.3598 21.7302 17.277 21.7721 17.2124C21.8859 17.0372 22.1917 16.9893 22.3804 16.9539Z" fill="#FFFEFF"/>
<path d="M23.4644 7.76524C23.6599 7.74549 23.8738 7.75166 24.0546 7.83568C24.2365 7.92016 24.36 8.07271 24.4272 8.2596C24.4648 8.36398 24.4851 8.47465 24.494 8.58501C24.5083 8.76137 24.5192 9.96991 24.4826 10.0475H23.999C24.0005 10.0441 24.0024 10.0408 24.0035 10.0373C24.021 9.9788 23.9836 9.85736 23.9593 9.80131C23.9581 9.80348 23.9573 9.80598 23.9556 9.80783C23.8126 9.96561 23.5594 10.0773 23.3495 10.0959C23.1709 10.1118 23.0002 10.0744 22.8599 9.96009C22.8198 9.92748 22.7864 9.88807 22.7468 9.85527L22.7318 9.84306C22.7048 9.74548 22.645 9.6609 22.6268 9.55825C22.5969 9.39006 22.6376 9.1885 22.7404 9.05117C22.9863 8.72279 23.5163 8.66603 23.8926 8.61213C23.9125 8.55727 23.894 8.4892 23.8738 8.43661C23.8438 8.35908 23.7744 8.29101 23.6981 8.259C23.4261 8.14496 23.1532 8.34362 22.9121 8.43737C22.9093 8.43846 22.9065 8.43948 22.9038 8.44053C22.9036 8.43697 22.9041 8.43337 22.9036 8.42981C22.8961 8.36735 22.7344 8.09039 22.6886 8.04989C22.7704 8.01676 22.8475 7.96738 22.9274 7.92921C23.1011 7.84631 23.2755 7.79707 23.4644 7.76524Z" fill="#C72F7A"/>
<path d="M23.8172 8.98732C23.8444 8.98348 23.8699 8.98309 23.8973 8.98355L23.9059 8.99639C23.9127 9.10038 23.9272 9.32668 23.8946 9.42167C23.8744 9.47443 23.7782 9.54232 23.7292 9.56875C23.5895 9.64409 23.4492 9.64877 23.2993 9.60445C23.2913 9.59616 23.2834 9.58765 23.2753 9.57939C23.2364 9.53983 23.2139 9.50389 23.2005 9.44928C23.1826 9.37633 23.19 9.30569 23.2326 9.24267C23.3487 9.07032 23.6285 9.02563 23.8172 8.98732Z" fill="#FFFEFF"/>
<path d="M28.9878 15.7319C29.2061 15.7139 29.4301 15.7436 29.6182 15.8625C29.8303 15.9965 29.955 16.2185 30.0088 16.459C30.0399 16.5979 30.0826 16.9448 30.0042 17.0687H28.618C28.6874 17.1442 28.6898 17.3116 28.7972 17.4285C28.9082 17.5494 29.0677 17.6071 29.2292 17.614C29.3892 17.6209 29.6254 17.5723 29.7467 17.4616C29.7824 17.4944 29.8113 17.5336 29.8144 17.5834C29.8171 17.5852 29.8199 17.5869 29.8223 17.589C29.866 17.6271 29.943 17.7692 29.9454 17.8241C29.8738 17.9258 29.5602 18.0166 29.4419 18.0425C29.1416 18.1083 28.809 18.0635 28.5493 17.8939C28.3009 17.7315 28.148 17.4744 28.0904 17.1863C28.0236 16.851 28.0746 16.4765 28.267 16.1896C28.4419 15.9291 28.6853 15.7927 28.9878 15.7319Z" fill="#C72F7A"/>
<path d="M29.0421 16.1875C29.1114 16.1795 29.1837 16.1813 29.2506 16.2027C29.3564 16.2365 29.4414 16.3088 29.4892 16.4095C29.5227 16.4801 29.5422 16.5953 29.5153 16.6705H29.095H28.6172C28.6534 16.6304 28.6957 16.4538 28.7344 16.3865C28.8007 16.2709 28.9189 16.2193 29.0421 16.1875Z" fill="#FFFEFF"/>
<path d="M21.3014 7.76489C21.4383 7.75079 21.5801 7.75113 21.7105 7.79969C21.8649 7.8571 21.9749 7.9743 22.0402 8.12357C22.0885 8.23386 22.1119 8.3541 22.1231 8.47346C22.139 8.64331 22.1503 9.95746 22.1151 10.0472H21.5212C21.5273 10.0362 21.5328 10.0269 21.5349 10.0143C21.5564 9.8833 21.5382 9.66715 21.5382 9.52896C21.5383 9.23242 21.5562 8.92209 21.5311 8.62686C21.5253 8.56 21.5104 8.42487 21.469 8.37063C21.429 8.31821 21.3678 8.27879 21.3032 8.26559C21.1265 8.22941 20.9861 8.33247 20.8478 8.4216C20.8249 8.45981 20.7868 8.48754 20.7492 8.51007C20.753 8.51852 20.7554 8.52274 20.7579 8.53127C20.7775 8.60055 20.7697 9.84167 20.7627 9.98732C20.7614 10.0114 20.7568 10.0261 20.745 10.0472H20.1497C20.1551 10.0371 20.1581 10.0327 20.1614 10.0223C20.1823 9.95687 20.1768 8.08243 20.1667 7.87065C20.1654 7.84606 20.1604 7.83096 20.1484 7.80949H20.6361C20.6407 7.81496 20.6464 7.82105 20.6501 7.8275C20.6832 7.88689 20.6984 8.04842 20.6853 8.11327C20.7395 8.08845 20.7892 8.03452 20.8349 7.99613C20.9787 7.8751 21.1191 7.81216 21.3014 7.76489Z" fill="#C72F7A"/>
<path d="M21.4953 19.6764C21.6542 19.6633 21.8155 19.6691 21.9592 19.7455C22.1167 19.8293 22.2099 19.9805 22.2583 20.1481C22.2866 20.2457 22.3007 20.3486 22.3067 20.4501C22.3222 20.7117 22.3091 20.9795 22.3092 21.2419C22.3092 21.4584 22.3233 21.6804 22.3096 21.8963C22.3079 21.9218 22.3031 21.9378 22.2908 21.9603H21.6989C21.706 21.9486 21.7083 21.9463 21.7121 21.9311C21.7351 21.8389 21.7166 21.6274 21.7166 21.5249C21.7167 21.1842 21.7405 20.7827 21.7013 20.4474C21.696 20.3979 21.6801 20.3504 21.6547 20.3076C21.6168 20.2437 21.5552 20.1939 21.4816 20.1788C21.2993 20.1415 21.1558 20.2529 21.0143 20.3458C20.9958 20.3807 20.9622 20.4031 20.9297 20.4234C20.931 20.4271 20.9328 20.4306 20.9339 20.4344C20.9575 20.5146 20.9519 21.7663 20.9405 21.9102C20.9388 21.9301 20.9328 21.9429 20.9235 21.9603H20.3293C20.3332 21.9538 20.3369 21.9486 20.3395 21.9416C20.3598 21.8856 20.3541 20.0028 20.3452 19.7893C20.3441 19.7638 20.3396 19.7474 20.3281 19.7246H20.8148C20.8177 19.7281 20.8207 19.7314 20.8235 19.7349C20.8625 19.7852 20.8743 19.9673 20.8635 20.0277C20.9126 20.0039 20.9591 19.9558 21.0023 19.9215C21.1627 19.7943 21.2947 19.7242 21.4953 19.6764Z" fill="#C72F7A"/>
<path d="M24.8012 15.7319C24.9517 15.7175 25.11 15.7297 25.2457 15.8012C25.402 15.8833 25.4965 16.034 25.545 16.1997C25.5742 16.2997 25.5882 16.4037 25.5946 16.5074C25.6105 16.7663 25.597 17.0323 25.5969 17.2919C25.5967 17.5102 25.6113 17.7341 25.5972 17.9517C25.5955 17.9775 25.5907 17.9937 25.5784 18.0165H24.9843C24.99 18.0065 24.9939 18.0011 24.9974 17.9905C25.0215 17.9193 25.0105 16.688 24.9922 16.5281C24.9853 16.4676 24.969 16.4066 24.9374 16.3541C24.8964 16.2857 24.8371 16.2546 24.7606 16.2383C24.5669 16.1971 24.4392 16.3174 24.2904 16.413C24.2756 16.4456 24.2481 16.4619 24.2191 16.4804C24.2445 16.5743 24.2406 17.8164 24.2283 17.9656C24.2266 17.9857 24.2205 17.999 24.2112 18.0165H23.6172C23.621 18.0101 23.625 18.0043 23.6275 17.9973C23.6469 17.9433 23.6436 16.046 23.6334 15.8357C23.6324 15.8136 23.6271 15.8004 23.6174 15.781H24.1054C24.108 15.7841 24.1107 15.7869 24.1129 15.7902C24.1501 15.8485 24.1636 16.0159 24.1522 16.0836C24.2007 16.0604 24.2474 16.0121 24.2902 15.9784C24.4559 15.8479 24.5922 15.7733 24.8012 15.7319Z" fill="#C72F7A"/>
<path d="M19.8748 15.7315C20.0226 15.7186 20.175 15.7282 20.3097 15.7954C20.464 15.8724 20.5604 16.014 20.6123 16.175C20.6429 16.2702 20.6593 16.3697 20.6665 16.4693C20.6853 16.7252 20.671 16.9862 20.6719 17.2427C20.6727 17.4803 20.6887 17.7253 20.6724 17.9621C20.6708 17.9838 20.6655 17.9971 20.6557 18.0163H20.0593C20.0665 18.0027 20.0729 17.9909 20.0756 17.9755C20.1015 17.8294 20.0783 17.4284 20.0774 17.2634C20.076 17.0273 20.1012 16.7704 20.0697 16.537C20.0602 16.4666 20.0412 16.393 19.9983 16.3351C19.9562 16.2783 19.8972 16.2457 19.8272 16.2371C19.6462 16.215 19.5188 16.2949 19.3853 16.4044L19.3034 16.483V18.0163H18.7109V15.7808H19.197C19.2097 15.8831 19.2264 15.9853 19.241 16.0873C19.4336 15.903 19.6116 15.785 19.8748 15.7315Z" fill="#C72F7A"/>
<path d="M15.3086 15.0591H17.1351V15.5597H15.9058V16.3238H16.9538V16.8039L16.945 16.8185C16.8356 16.8386 16.7051 16.8254 16.5934 16.8254L15.9058 16.8247V18.0162H15.3086V15.0591Z" fill="#C72F7A"/>
<path d="M16.547 7.08838H17.1431L17.1434 8.47377C17.1438 8.7255 17.1614 8.99108 17.1354 9.2413C17.1233 9.3588 17.0979 9.47547 17.0525 9.5848C16.968 9.78766 16.8188 9.94875 16.6131 10.0309C16.3291 10.1442 16.0025 10.1146 15.726 9.99637C15.5397 9.90023 15.4154 9.75832 15.3086 9.58107L15.7159 9.28011C15.745 9.32893 15.7756 9.37655 15.8138 9.41882C15.9033 9.51754 16.0239 9.58058 16.1583 9.58524C16.2533 9.58854 16.3457 9.56396 16.4146 9.49594C16.4808 9.4306 16.5146 9.34184 16.5303 9.2518C16.5717 9.01426 16.547 8.73977 16.5471 8.49815L16.547 7.08838Z" fill="#C72F7A"/>
<path d="M27.0714 15.7315C27.2102 15.721 27.3465 15.7278 27.4812 15.7648C27.5892 15.7945 27.7871 15.8689 27.8459 15.9715C27.8457 15.9749 27.8457 15.9783 27.8451 15.9816C27.8313 16.0425 27.6129 16.3172 27.5623 16.355C27.5474 16.3309 27.5258 16.3137 27.5032 16.2968C27.3956 16.2169 27.2617 16.1949 27.1316 16.2178C26.9944 16.242 26.8774 16.3233 26.7992 16.4374C26.6728 16.6215 26.6493 16.8759 26.6916 17.0907C26.7237 17.2534 26.8048 17.4145 26.9465 17.508C27.0584 17.5819 27.1939 17.6039 27.3247 17.5771C27.4213 17.5574 27.5815 17.4951 27.6378 17.4114C27.6911 17.4518 27.7859 17.6021 27.7948 17.6649C27.7975 17.6675 27.8004 17.6701 27.8031 17.6728C27.8336 17.7038 27.8755 17.7569 27.8738 17.8014C27.8716 17.806 27.8699 17.8108 27.8673 17.815C27.7956 17.9258 27.4863 18.0284 27.3614 18.052C27.0779 18.1053 26.7663 18.0517 26.5269 17.8873C26.2842 17.7208 26.1396 17.4601 26.0872 17.1739C26.0259 16.8406 26.0754 16.4733 26.2725 16.1919C26.4693 15.911 26.7434 15.7898 27.0714 15.7315Z" fill="#C72F7A"/>
<path d="M24.1523 10.8982C24.2828 10.8661 24.591 10.8882 24.7388 10.889C24.8087 11.0146 24.7202 13.1444 24.7653 13.4999C24.7711 13.5456 24.7782 13.6011 24.8191 13.6294C24.8597 13.6575 24.9085 13.6476 24.9542 13.6418C24.986 13.7717 25.0233 13.9356 25.0239 14.0686L25.0006 14.0871C24.9937 14.0906 24.9865 14.0937 24.9792 14.0965C24.8339 14.1529 24.5966 14.1436 24.4569 14.0772C24.3408 14.022 24.2588 13.9249 24.2189 13.8037C24.1286 13.5287 24.1656 12.8869 24.1658 12.5734L24.1653 11.3929C24.166 11.2651 24.1948 11.0143 24.1523 10.8982Z" fill="#C72F7A"/>
<path d="M25.4102 10.8984C25.5652 10.8657 25.8355 10.8886 26.0018 10.8892C26.0139 10.9093 26.0179 10.925 26.0194 10.9479C26.034 11.1729 26.021 11.4076 26.0209 11.6334L26.0199 12.9896C26.0198 13.1615 26.0029 13.3503 26.0262 13.5197C26.031 13.5548 26.0357 13.5835 26.0594 13.6111C26.1003 13.6589 26.155 13.6441 26.2117 13.6466C26.237 13.7121 26.2996 14.0172 26.2772 14.0796L26.2448 14.0926C26.2405 14.0947 26.2363 14.0968 26.2319 14.0988C26.1088 14.1537 25.8704 14.139 25.7487 14.0914C25.6244 14.044 25.5274 13.9441 25.4837 13.8185C25.3882 13.5486 25.4265 12.8521 25.4266 12.5378L25.4259 11.3605C25.4262 11.2478 25.4538 10.9961 25.4102 10.8984Z" fill="#C72F7A"/>
<path d="M17.543 15.7808H18.139V18.0162H17.543V15.7808Z" fill="#C72F7A"/>
<path d="M0.699146 18.8088C0.951628 18.7749 1.18349 18.9529 1.21601 19.2056C1.24852 19.4583 1.06926 19.6892 0.816417 19.7203C0.565543 19.7512 0.336846 19.5736 0.304588 19.3229C0.27233 19.0722 0.448628 18.8425 0.699146 18.8088Z" fill="#C72F7A"/>
<path d="M2.09545 17.3974C2.34915 17.3777 2.57044 17.5682 2.58881 17.8219C2.60718 18.0757 2.41563 18.2961 2.16174 18.3131C1.9097 18.3301 1.69134 18.1402 1.67309 17.8882C1.65486 17.6363 1.8436 17.4169 2.09545 17.3974Z" fill="#F3BA44"/>
<path d="M3.58684 18.8198C3.83325 18.7968 4.05177 18.9776 4.07529 19.224C4.09882 19.4704 3.91846 19.6893 3.67215 19.7133C3.42507 19.7375 3.20535 19.5564 3.18175 19.3093C3.15816 19.0622 3.33966 18.8428 3.58684 18.8198Z" fill="#C72F7A"/>
<path d="M4.99381 19.5541C5.1534 19.5252 5.31615 19.5847 5.4195 19.7096C5.52284 19.8346 5.5507 20.0057 5.49234 20.1569C5.434 20.3083 5.29853 20.4164 5.13802 20.4396C4.89584 20.4747 4.67022 20.3092 4.6309 20.0677C4.59157 19.8262 4.75302 19.5976 4.99381 19.5541Z" fill="#F3BA44"/>
<path d="M17.7647 14.7829C17.8577 14.7772 17.9407 14.7771 18.0256 14.8226C18.1023 14.8636 18.1609 14.933 18.1844 15.0171C18.207 15.0989 18.1979 15.187 18.1537 15.2601C18.1016 15.3463 18.016 15.3893 17.9219 15.4135C17.8285 15.4214 17.7449 15.4221 17.6593 15.3767C17.5825 15.3366 17.5253 15.2671 17.5008 15.1841C17.4777 15.1038 17.4863 15.0149 17.5287 14.9425C17.5825 14.8508 17.6668 14.8104 17.7647 14.7829Z" fill="#C72F7A"/>
<path d="M31.5855 6.34331C31.6191 6.32349 31.6624 6.33464 31.6822 6.36821C31.7021 6.40178 31.6908 6.44507 31.6573 6.4649C31.6237 6.48472 31.5804 6.47357 31.5606 6.44C31.5407 6.40642 31.552 6.36314 31.5855 6.34331Z" fill="#F3BA44"/>
</g>
<defs>
<clipPath id="clip0_36734_385306">
<rect width="32" height="32" rx="8" fill="white"/>
</clipPath>
</defs>
</svg>
